<?xml version="1.0" encoding="utf-8"?>
<!-- Generator: Adobe Illustrator 28.0.0, SVG Export Plug-In . SVG Version: 6.00 Build 0)  -->
<svg version="1.1" id="Layer_1" xmlns="http://www.w3.org/2000/svg" xmlns:xlink="http://www.w3.org/1999/xlink" x="0px" y="0px"
	 viewBox="0 0 1399.8 173.2" style="enable-background:new 0 0 1399.8 173.2;" xml:space="preserve">
<g>
	<path d="M804.9,173.2c-7.5-1.3-15.1-2.3-22.5-4c-5.7-1.3-11.2-3.7-17.2-5.6c0.8-0.9,1-1.2,1.1-1.2c42.1,2.2,82.3-7.4,121.8-20.7
		c30.7-10.3,61.3-21.2,92.2-30.8c28.3-8.8,57.3-13.4,87.1-12.5c22.5,0.7,44.3,4.9,65.3,13c8.5,3.3,15.8,8.2,21,16.8
		c-10.8-3.1-20.9-6.2-31.2-8.8c-30.2-7.6-60.4-6-90.6,0.4c-34.9,7.4-68.5,19.1-102.2,30.7c-33.8,11.6-68.1,20.6-104.1,22.1
		c-1,0-1.9,0.5-2.8,0.7C816.9,173.2,810.9,173.2,804.9,173.2z"/>
	<path d="M0,84.2c51.6,2.5,103.2,5,154.1,7.5c0.4-0.2-0.2,0.3-0.9,0.5c-29.7,12.3-60.4,19.4-92.9,17.1c-19.6-1.4-38.3-6.4-56.2-14.4
		c-1.4-0.6-2.8-1.1-4.1-1.7C0,90.2,0,87.2,0,84.2z"/>
	<path d="M1399.8,89.2c-50.1-4.2-100.1-7.4-150.4-5.7c-0.1-0.5-0.3-1-0.4-1.4c4.5-2.3,8.8-4.8,13.4-6.8c16.1-6.8,33.1-9.9,50.5-10.9
		c30-1.8,59.1,1.7,86.9,13.9C1399.8,81.8,1399.8,85.5,1399.8,89.2z"/>
	<path d="M1363,10.7c-6.1,0.4-12.2,1-18.3,1c-38.6,0-74.9,10.5-111,22.7c-32.6,11-65.2,22.1-98.2,31.8c-27.9,8.2-56.7,11.9-86,8.9
		c-21-2.2-41.4-7-59.9-17.7c-5-2.9-9.4-6.6-14.1-10c0.2-0.5,0.4-0.9,0.6-1.4c6,1.3,12.2,2.1,18.1,4c40.6,13,81.1,9.7,121.1-1.6
		c34.7-9.8,69-21.3,103.5-31.8c33.1-10.1,66.6-17.6,101.6-16.5c12.9,0.4,25.5,2.6,37.6,7.1c1.8,0.7,3.6,1.5,5.4,2.3
		C1363.3,10,1363.1,10.4,1363,10.7z"/>
	<path d="M242.8,41.9c10.2,3.3,19.6,6.2,28.8,9.3c24.6,8.3,49.7,8.3,75.1,5.4C388.6,52,428,38,467.5,24.7
		c27.5-9.2,55.1-17.9,83.9-21.9c24-3.3,48.1-4.5,72,1.5c6.1,1.5,11.8,4.3,17.6,7.6c-0.5,0.1-1,0.4-1.5,0.4
		c-45.2-2.9-88.3,7.3-130.7,21.4c-32.8,10.9-65.6,22.1-98.7,31.9c-28.2,8.3-57.3,12.3-86.9,9.7c-20.1-1.7-39.4-6.4-57.7-14.9
		C256.7,56.2,249.4,50.3,242.8,41.9z"/>
	<path d="M425.6,127.5c-11.2-3-21-5.8-31-8.3c-34.2-8.4-68.3-5.7-101.7,3.7c-34.7,9.8-69,21.2-103.5,31.7
		c-31.6,9.7-63.6,17.4-96.9,17.8c-19.8,0.2-39.2-2.1-58.1-9.8c6.8-0.8,13.5-2,20.3-2.4c10.1-0.5,20.4,0.2,30.5-0.8
		c24.5-2.3,48-9.1,71.3-16.9c29.4-9.7,58.4-20.5,87.9-29.9c47.7-15.1,96.3-18.5,145.4-7.6C403.7,108.3,415.9,114.6,425.6,127.5z"/>
	<path d="M47.3,13.5c78.3-4,156.5-8,234.8-12c0.2,0.3,0.3,0.5,0.5,0.8c-2.1,1.3-4.1,2.9-6.3,4c-16.7,8.6-34.8,13.1-53.1,16.8
		c-33.6,6.8-67.6,9.6-101.8,8.1c-22.7-1-45.1-3.9-66.3-12.7c-2.7-1.1-5.3-2.5-8-3.7C47.1,14.2,47.2,13.8,47.3,13.5z"/>
	<path d="M769.7,8.3c46.9,6.4,93.8,3.2,140.6-0.7c32.9-2.7,65.8-4.8,98.7-7.1c1.1-0.1,2.3,0,3.8,0.8c-2.2,1.3-4.3,2.7-6.5,3.9
		c-18.1,9.3-37.6,14.2-57.4,17.9c-34.5,6.6-69.4,9-104.4,7c-19.7-1.2-39.2-3.6-57.6-11c-6.2-2.5-11.9-6.1-17.9-9.2
		C769.2,9.4,769.4,8.9,769.7,8.3z"/>
	<path d="M628.8,162.4c-18-0.8-35.4-2.6-52.6-2c-31.8,1.3-63.5,4.1-95.2,6.1c-28.7,1.9-57.5,3.6-86.2,5.4c-1.6,0.1-3.2,0-5.1-1.1
		c1.8-0.9,3.6-1.9,5.4-2.8c23.1-10.9,47.7-16.7,72.7-20.8c31-5.1,62.2-6.8,93.6-4.1c21.5,1.9,42.6,5.7,61.9,16
		c1.3,0.7,2.6,1.5,3.9,2.3C627.6,161.7,628,161.9,628.8,162.4z"/>
	<path d="M1354.7,161.2c-7.6-0.4-15.1-0.9-22.7-1.3c-28.5-1.7-56.9,0.5-85.3,2.8c-39.5,3.2-78.9,7.8-118.6,7.3c-2.3,0-4.6,0-6.9-0.6
		c37.5-14.3,76-24.3,116.2-27C1277.8,139.7,1317.1,145,1354.7,161.2z"/>
	<path d="M711.3,82.2c57.3,8.9,114.9,5.5,172.4,8.4c-10.6,9.1-61.8,20.2-87.7,19.3C766,108.8,723.8,95.1,711.3,82.2z"/>
	<path d="M521.8,80.9c56.7-23.3,113-24.9,168.1,7.9C633.5,86.1,577.5,83.5,521.8,80.9z"/>
</g>
</svg>
